# xmcd
#
# Track frame offsets: 
#        150
#        19180
#        38277
#        57540
#        73782
#        90282
#        109597
#        123592
#        141537
#        160100
#
# Disc length: 2404 seconds
#
# Revision: 0
# Processed by: cddbd v1.5.1PL0 Copyright (c) Steve Scherf et al.
# Submitted via: ExactAudioCopy v0.95a5
#
DISCID=8209620a
DTITLE=เชษฐา ยารสเอก - January Wind
DYEAR=1997
DGENRE=Pop
TTITLE0=แค่อยากร้องไห้
TTITLE1=สายลม
TTITLE2=ห้องที่ว่างเปล่า
TTITLE3=หัวใจยังตามหา
TTITLE4=แสงจันทร์
TTITLE5=เธอคือคำตอบ
TTITLE6=จะเก็บเธอไว้ในอ้อมกอด
TTITLE7=อย่าไปจากฉัน
TTITLE8=ขออีกคน
TTITLE9=อย่าให้เขารอ
EXTD=
EXTT0=
EXTT1=
EXTT2=
EXTT3=
EXTT4=
EXTT5=
EXTT6=
EXTT7=
EXTT8=
EXTT9=
PLAYORDER=
